<svg width="1200" height="630" viewBox="0 0 1200 630" fill="none" xmlns="http://www.w3.org/2000/svg" role="img" aria-label="babelforce manager SDK">
  <rect width="1200" height="630" fill="#0b1f3a"/>
  <rect width="1200" height="630" fill="url(#bg)"/>
  <g transform="translate(96 150)">
    <rect width="120" height="120" rx="27" fill="url(#mark)"/>
    <path d="M30 39a9 9 0 0 1 9-9h42a9 9 0 0 1 9 9v27a9 9 0 0 1-9 9H54l-18 15v-15h-3a9 9 0 0 1-3-8.5V39Z" fill="#fff"/>
    <circle cx="46.5" cy="52.5" r="5.7" fill="#1565ff"/>
    <circle cx="60" cy="52.5" r="5.7" fill="#1565ff"/>
    <circle cx="73.5" cy="52.5" r="5.7" fill="#1565ff"/>
  </g>
  <text x="98" y="380" font-family="Inter, Segoe UI, Helvetica, Arial, sans-serif" font-size="76" font-weight="700" fill="#ffffff">babelforce manager SDK</text>
  <text x="100" y="448" font-family="Inter, Segoe UI, Helvetica, Arial, sans-serif" font-size="36" font-weight="400" fill="#9fc0ff">Auth, agents, call reporting, metrics &amp; task automations</text>
  <text x="100" y="512" font-family="Inter, Segoe UI, Helvetica, Arial, sans-serif" font-size="30" font-weight="500" fill="#5e8de0">TypeScript&#160;&#160;·&#160;&#160;Go</text>
  <defs>
    <linearGradient id="bg" x1="0" y1="0" x2="1200" y2="630" gradientUnits="userSpaceOnUse">
      <stop stop-color="#0b1f3a"/>
      <stop offset="1" stop-color="#10294d"/>
    </linearGradient>
    <linearGradient id="mark" x1="0" y1="0" x2="120" y2="120" gradientUnits="userSpaceOnUse">
      <stop stop-color="#3d7dff"/>
      <stop offset="1" stop-color="#0b3fae"/>
    </linearGradient>
  </defs>
</svg>
